<svg width="134" height="63" viewBox="0 0 134 63" fill="none" xmlns="http://www.w3.org/2000/svg">
<path d="M44.7167 35.1945C49.1866 29.4976 57.8134 29.4976 62.2833 35.1945V35.1945C68.0315 42.5208 62.8121 53.25 53.5 53.25V53.25C44.1879 53.25 38.9685 42.5208 44.7167 35.1945V35.1945Z" fill="#6DE1D2"/>
<rect x="46.422" y="40.0981" width="5.21005" height="15.2902" rx="2.60502" transform="rotate(-52.4645 46.422 40.0981)" fill="#FFD63A"/>
<path d="M98.7167 35.1945C103.187 29.4976 111.813 29.4976 116.283 35.1945V35.1945C122.031 42.5208 116.812 53.25 107.5 53.25V53.25C98.1879 53.25 92.9685 42.5208 98.7167 35.1945V35.1945Z" fill="#6DE1D2"/>
<rect x="105.371" y="35.0895" width="5.21005" height="15.2664" rx="2.60502" transform="rotate(-0.628583 105.371 35.0895)" fill="#FFD63A"/>
<path d="M71.7167 25.1945C76.1866 19.4976 84.8134 19.4976 89.2833 25.1945V25.1945C95.0315 32.5208 89.8121 43.25 80.5 43.25V43.25C71.1879 43.25 65.9685 32.5208 71.7167 25.1945V25.1945Z" fill="#F75A5A"/>
<rect x="77" y="39.6627" width="5.21005" height="15.2664" rx="2.60502" transform="rotate(-130.932 77 39.6627)" fill="#FFD63A"/>
<rect x="6" y="22" width="7" height="28" rx="3.5" fill="#FFD63A"/>
<rect width="6.71884" height="25.796" rx="3.35942" transform="matrix(0.835588 -0.549356 0.675157 0.737674 15.0435 24.7985)" fill="#FFD63A"/>
<ellipse cx="15.486" cy="13.5" rx="15.486" ry="13.5" fill="#F75A5A"/>
</svg>
